<svg xmlns="http://www.w3.org/2000/svg" width="256" height="256" viewBox="0 0 256 256" role="img" aria-labelledby="title"><title id="title">White page, Mervin P icon concept 05</title><defs></defs><path d="M55 9H157L215 67V226Q215 247 194 247H55Q34 247 34 226V30Q34 9 55 9Z" fill="#f8fbff" stroke="#b9cede" stroke-width="3"/><path d="M157 9V48Q157 67 176 67H215Z" fill="#c5dced"/><path d="M75 191V65H139C172 65 191 81 191 108C191 135 172 151 139 151H109V191ZM109 93V123H137C151 123 158 118 158 108C158 98 151 93 137 93Z" fill="#1265b3" fill-rule="evenodd" transform="translate(24 44) scale(.8)"/></svg>
