<svg xmlns="http://www.w3.org/2000/svg" width="256" height="256" viewBox="0 0 256 256" role="img" aria-labelledby="title"><title id="title">Page and lens, Mervin image icon concept 02</title><defs><linearGradient id="paper" x1="0" y1="0" x2="1" y2="1"><stop offset="0" stop-color="#fffdf4"/><stop offset="1" stop-color="#cad9df"/></linearGradient><linearGradient id="ring" x1="0" y1="0" x2="1" y2="1"><stop offset="0" stop-color="#5cd1ff"/><stop offset="0.4" stop-color="#178ed9"/><stop offset="1" stop-color="#125199"/></linearGradient><linearGradient id="glass" x1="0" y1="0" x2="1" y2="1"><stop offset="0" stop-color="#f4feff"/><stop offset="0.5" stop-color="#c7e9f4"/><stop offset="1" stop-color="#7cbdd8"/></linearGradient><linearGradient id="brass" x1="0" y1="0" x2="1" y2="1"><stop offset="0" stop-color="#ffe6a0"/><stop offset="0.4" stop-color="#e5b64e"/><stop offset="1" stop-color="#a97124"/></linearGradient></defs><path d="M38 18H122L166 60V194Q166 205 153 205H39Q26 205 26 191V32Q26 18 38 18Z" fill="#0a2336" opacity=".2" transform="translate(4 5)"/>
      <path d="M38 13H123L166 56V188Q166 202 152 202H38Q24 202 24 188V27Q24 13 38 13Z" fill="url(#paper)" stroke="#aabdca" stroke-width="2"/>
      <path d="M123 13V44Q123 56 135 56H166Z" fill="#b7cbd7"/>
      <path d="M48 74H101M48 99H96M48 124H84M48 150H75" stroke="#8ea9bc" stroke-width="9" stroke-linecap="round"/>
      <path d="M187 173L238 219Q245 228 237 236Q229 244 220 237L172 187Z" fill="#061f37" opacity=".25" transform="translate(1 3)"/>
      <path d="M185 166L239 218Q247 226 238 235Q230 244 221 235L171 183Z" fill="url(#brass)" stroke="#a47429" stroke-width="2"/>
      <path d="M186 176L233 224" stroke="#fff1ba" stroke-width="5" stroke-linecap="round" opacity=".75"/>
      <path d="M176 163L195 181L181 195L162 176Z" fill="#154f7d"/>
      <circle cx="143" cy="132" r="66" fill="#0c2a45" opacity=".18" transform="translate(2 5)"/>
      <circle cx="143" cy="130" r="64" fill="url(#ring)" stroke="#1569a6" stroke-width="2"/>
      <circle cx="143" cy="130" r="48" fill="url(#glass)" stroke="#0e5e96" stroke-width="3"/>
      <path d="M116 115H153M116 140H166" fill="none" stroke="#528daf" stroke-width="10" stroke-linecap="round" opacity=".7"/>
      <path d="M105 121Q110 97 134 93" fill="none" stroke="#fff" stroke-opacity=".83" stroke-width="7" stroke-linecap="round"/>
      <path d="M93 102A57 57 0 0 1 155 75" fill="none" stroke="#c7f1ff" stroke-width="3" stroke-linecap="round" opacity=".85"/>
      <path d="M158 173Q174 166 180 153" fill="none" stroke="#ebfbff" stroke-width="3" stroke-linecap="round" opacity=".45"/></svg>
