<svg xmlns="http://www.w3.org/2000/svg" width="256" height="256" viewBox="0 0 256 256" role="img" aria-labelledby="title"><title id="title">Drafting compass, Mervin image icon concept 04</title><defs><linearGradient id="paper" x1="0" y1="0" x2="1" y2="1"><stop offset="0" stop-color="#fffdf2"/><stop offset="1" stop-color="#c9d8df"/></linearGradient><linearGradient id="brass" x1="0" y1="0" x2="1" y2="1"><stop offset="0" stop-color="#fff1b8"/><stop offset="0.45" stop-color="#dfb357"/><stop offset="1" stop-color="#a77426"/></linearGradient><linearGradient id="blue" x1="0" y1="0" x2="1" y2="1"><stop offset="0" stop-color="#59bef0"/><stop offset="0.48" stop-color="#278acf"/><stop offset="1" stop-color="#15598d"/></linearGradient><linearGradient id="steel" x1="0" y1="0" x2="1" y2="1"><stop offset="0" stop-color="#f5faff"/><stop offset="0.42" stop-color="#b9c9d2"/><stop offset="1" stop-color="#607b8f"/></linearGradient></defs><g transform="rotate(9 128 145)">
      <path d="M64 55H189Q200 55 200 66V222Q200 233 189 233H64Q53 233 53 222V66Q53 55 64 55Z" fill="#071e2d" opacity=".18" transform="translate(4 4)"/>
      <rect x="53" y="51" width="147" height="177" rx="11" fill="url(#paper)" stroke="#a9becb" stroke-width="2"/>
      <path d="M67 207A57 57 0 0 1 176 169" fill="none" stroke="#6aa8ca" stroke-width="4"/>
      <path d="M81 186H166M122 145V215" fill="none" stroke="#9cc0d1" stroke-width="3"/>
      </g>
      <path d="M129 51L39 206L31 239L57 216L143 66Z" fill="#072137" opacity=".18" transform="translate(4 3)"/>
      <path d="M145 51L215 204L223 236L201 221L123 65Z" fill="#072137" opacity=".18" transform="translate(4 3)"/>
      <path d="M119 54L36 204L55 216L143 67Z" fill="url(#brass)" stroke="#a9772d" stroke-width="2" stroke-linejoin="round"/>
      <path d="M120 66L44 203" fill="none" stroke="#fff3bd" stroke-width="5" stroke-linecap="round" opacity=".8"/>
      <path d="M36 204L29 237L54 215Z" fill="url(#steel)"/>
      <path d="M127 63L199 214L217 203L150 52Z" fill="url(#brass)" stroke="#a9772d" stroke-width="2" stroke-linejoin="round"/>
      <path d="M148 65L208 203" fill="none" stroke="#fff0b4" stroke-width="4" stroke-linecap="round" opacity=".8"/>
      <path d="M185 167L207 157L231 211Q234 218 226 222L219 225Q212 228 209 221Z" fill="url(#blue)" stroke="#145688" stroke-width="2"/>
      <path d="M196 169L217 216" fill="none" stroke="#9adfff" stroke-width="4" opacity=".7"/>
      <path d="M220 224L233 242L232 216Z" fill="url(#steel)"/>
      <path d="M97 113Q136 128 174 111" fill="none" stroke="#8a6835" stroke-width="11"/>
      <path d="M97 111Q136 126 174 109" fill="none" stroke="#e5c170" stroke-width="5"/>
      <rect x="125" y="11" width="21" height="33" rx="7" fill="url(#blue)" stroke="#175d92" stroke-width="2"/>
      <path d="M131 18V31" stroke="#b1e6ff" stroke-width="3" stroke-linecap="round" opacity=".75"/>
      <circle cx="135" cy="55" r="26" fill="url(#brass)" stroke="#a5772f" stroke-width="2"/>
      <circle cx="135" cy="55" r="13" fill="url(#blue)" stroke="#155c91" stroke-width="2"/>
      <path d="M130 50L140 60" stroke="#bde7f9" stroke-width="4" stroke-linecap="round"/></svg>
