<svg xmlns="http://www.w3.org/2000/svg" width="256" height="256" viewBox="0 0 256 256" role="img" aria-labelledby="title"><title id="title">Set square, Mervin image icon concept 11</title><defs>
      <linearGradient id="draft-gold" x1="0" y1="0" x2="1" y2="1">
        <stop stop-color="#ffe690"/><stop offset=".45" stop-color="#f7bc3d"/><stop offset="1" stop-color="#dd7c17"/>
      </linearGradient>
      <linearGradient id="draft-pencil" x1="0" y1="0" x2="1" y2=".6">
        <stop stop-color="#6bddf4"/><stop offset=".42" stop-color="#168ad1"/><stop offset="1" stop-color="#174c98"/>
      </linearGradient>
      <linearGradient id="draft-wood" x2="1" y2="1">
        <stop stop-color="#fff0bd"/><stop offset="1" stop-color="#d99c4b"/>
      </linearGradient>
      <linearGradient id="draft-cap" x2="1" y2="1">
        <stop stop-color="#6cc4e8"/><stop offset="1" stop-color="#16457f"/>
      </linearGradient></defs>
      <path d="M29 29V225H233ZM69 118L138 187H69Z" fill="#593a18" fill-rule="evenodd" opacity=".2" transform="translate(1 5)"/>
      <path d="M29 25V221H233ZM69 114L138 183H69Z" fill="url(#draft-gold)" fill-rule="evenodd" stroke="#a5641a" stroke-width="2.5" stroke-linejoin="round"/>
      <path d="M37 44V212H211" fill="none" stroke="#ffecaa" stroke-width="4" stroke-linejoin="round"/>
      <path d="M69 114V183H138" fill="none" stroke="#a5641a" stroke-width="4" stroke-linejoin="round"/>
      <path d="M77 201V218M105 205V218M133 201V218M161 205V218M189 201V218M33 79H45M33 107H41M33 135H45M33 163H41M33 191H45" fill="none" stroke="#9c651d" stroke-width="3"/>
      <path d="M47 232L75 179L194 43L214 61L95 197Z" fill="#1b3546" opacity=".2" transform="translate(3 3)"/>
      <path d="M46 229L74 176L95 194Z" fill="url(#draft-wood)" stroke="#986e3c" stroke-width="1.5" stroke-linejoin="round"/>
      <path d="M46 229L58 205L65 213Z" fill="#283942"/>
      <path d="M74 176L192 41L213 60L95 194Z" fill="url(#draft-pencil)" stroke="#174d82" stroke-width="2" stroke-linejoin="round"/>
      <path d="M74 176L192 41L198 47L81 182Z" fill="#8be8f4" opacity=".75"/>
      <path d="M89 188L207 54L213 60L95 194Z" fill="#104a8c" opacity=".85"/>
      <path d="M192 41L206 25Q211 19 217 24L229 35Q234 40 229 46L213 64Z" fill="url(#draft-cap)" stroke="#234f7c" stroke-width="2"/>
      <path d="M188 45L209 64L217 55L196 36Z" fill="#d0e6ee"/>
      <path d="M191 47L211 65" fill="none" stroke="#8aaabc" stroke-width="2"/></svg>
